<?xml version="1.0" standalone="no"?>
<!DOCTYPE svg PUBLIC "-//W3C//DTD SVG 20010904//EN"
 "http://www.w3.org/TR/2001/REC-SVG-20010904/DTD/svg10.dtd">
<svg version="1.0" xmlns="http://www.w3.org/2000/svg"
 width="596.000000pt" height="596.000000pt" viewBox="0 0 596.000000 596.000000"
 preserveAspectRatio="xMidYMid meet">
<metadata>
Created by potrace 1.14, written by Peter Selinger 2001-2017
</metadata>
<g transform="translate(0.000000,596.000000) scale(0.100000,-0.100000)"
fill="#000000" stroke="none">
<path d="M2533 4504 l-92 -65 20 -72 c64 -229 116 -636 134 -1039 l6 -138 -28
0 c-16 0 -40 -6 -54 -14 l-26 -13 -7 66 c-3 36 -6 87 -6 112 l0 46 -97 7
c-256 17 -551 60 -737 107 -95 24 -121 28 -127 17 -4 -7 -33 -49 -63 -93 l-56
-79 24 -13 c61 -32 431 -112 596 -129 l75 -8 -49 -7 c-117 -18 -186 -99 -186
-216 0 -102 35 -164 115 -206 23 -12 34 -22 25 -24 -8 -1 -80 -14 -160 -27
-145 -25 -356 -76 -411 -99 l-29 -12 62 -93 c55 -81 66 -92 88 -88 14 2 95 20
180 39 275 63 599 96 1050 106 l285 6 -1 85 -2 85 53 21 52 20 7 -130 c20
-388 60 -764 102 -956 23 -106 74 -293 83 -309 11 -17 191 103 191 128 0 9 -9
48 -19 86 -54 199 -104 564 -121 893 -5 112 -10 214 -10 228 0 23 3 24 54 23
l54 -2 6 -45 c3 -24 6 -66 6 -93 l0 -48 53 -5 c28 -3 106 -10 172 -16 257 -24
589 -81 689 -120 16 -6 32 -7 36 -3 24 28 120 174 120 182 0 20 -248 84 -470
121 -68 12 -126 22 -128 24 -1 2 14 6 33 9 20 3 56 17 80 32 l44 25 -16 45
c-8 25 -19 45 -24 45 -5 0 -26 -9 -46 -20 -57 -30 -118 -27 -154 9 -24 25 -29
38 -29 80 0 65 28 100 87 108 l42 5 7 -51 7 -51 53 0 54 0 0 89 0 89 -33 11
c-18 6 -66 15 -107 19 l-75 8 70 7 c139 15 404 71 588 124 24 7 21 23 -11 63
-15 19 -43 59 -61 88 -18 28 -34 52 -36 52 -1 0 -55 -13 -120 -30 -123 -31
-300 -63 -450 -79 -49 -6 -130 -15 -180 -21 -49 -5 -246 -15 -437 -22 l-348
-12 0 -97 0 -97 -34 -22 c-19 -11 -43 -34 -54 -51 l-19 -30 -7 233 c-11 362
-40 655 -96 938 -21 112 -76 310 -88 321 -4 4 -48 -22 -99 -57z m-255 -1330
c18 -4 22 -11 22 -44 0 -36 3 -40 25 -40 l25 0 0 -119 c0 -116 -1 -120 -22
-123 -19 -2 -24 -10 -26 -40 -3 -36 -5 -38 -36 -38 -19 0 -49 -3 -67 -6 l-34
-6 32 21 c54 34 85 92 91 169 7 102 -38 184 -123 224 l-40 18 65 -5 c36 -4 75
-8 88 -11z m1583 -10 c-90 -45 -126 -131 -107 -257 7 -47 61 -121 100 -138 22
-9 -162 -3 -197 7 -15 5 -13 9 13 35 32 33 46 81 36 133 -12 66 -62 105 -185
147 -66 23 -104 46 -96 59 4 6 39 10 79 10 66 0 74 -2 79 -21 5 -18 12 -20 59
-17 46 3 53 6 56 25 2 16 12 24 35 28 42 6 93 11 141 13 l40 2 -53 -26z m-576
-43 c3 -16 18 -41 32 -55 l26 -26 -56 0 c-47 0 -57 3 -62 21 -4 11 -20 36 -37
55 l-30 34 60 0 c59 0 61 -1 67 -29z m-704 -41 c16 -9 19 -22 19 -90 0 -47 4
-80 10 -80 6 0 10 -27 10 -60 l0 -60 -45 0 c-43 0 -45 1 -45 30 0 25 -4 30
-25 30 -25 0 -25 0 -25 99 0 96 1 100 26 120 30 23 46 26 75 11z m-468 -12
c36 -19 46 -40 47 -97 0 -46 -4 -59 -27 -83 -51 -53 -124 -30 -144 44 -26 100
45 178 124 136z m966 -7 c20 -15 25 -30 29 -78 4 -53 1 -62 -23 -91 -34 -41
-84 -44 -120 -7 -21 20 -25 34 -25 85 0 51 4 65 25 85 29 30 79 33 114 6z
m488 -123 c22 -23 9 -66 -23 -78 -14 -6 -52 -10 -85 -10 l-59 0 0 79 0 80 75
-28 c42 -15 83 -35 92 -43z m-747 -47 c0 -10 11 -35 25 -55 l24 -36 -34 0
c-27 0 -34 4 -37 23 -2 16 -11 23 -30 25 -24 3 -28 8 -28 33 0 27 2 29 40 29
32 0 40 -4 40 -19z"/>
<path d="M3340 4498 c-12 -40 -23 -80 -26 -88 -12 -33 -56 -264 -74 -385 -22
-150 -37 -285 -46 -437 l-7 -108 109 6 c60 4 110 8 112 9 2 2 7 56 12 121 20
258 61 530 109 712 l29 114 -39 26 c-22 15 -62 44 -91 65 -28 20 -55 37 -59
37 -5 0 -18 -33 -29 -72z"/>
<path d="M992 3293 c3 -41 6 -48 26 -51 22 -3 22 -4 22 -198 l0 -194 -25 0
c-23 0 -25 -3 -25 -50 l0 -50 115 0 115 0 0 50 c0 47 -2 50 -25 50 -25 0 -25
0 -25 99 0 96 1 100 26 120 33 26 55 26 85 2 23 -18 24 -25 27 -170 l3 -152
87 3 87 3 0 45 c0 38 -3 45 -21 48 -20 3 -21 11 -27 113 -7 126 -28 179 -87
211 -44 24 -130 20 -159 -7 -20 -17 -20 -16 -23 76 l-3 94 -88 3 -88 3 3 -48z"/>
<path d="M670 3310 c-143 -36 -223 -156 -206 -311 8 -78 26 -118 77 -174 34
-37 55 -49 111 -66 75 -23 131 -21 223 7 73 21 85 36 72 87 -5 23 -13 46 -17
50 -4 4 -31 -4 -61 -18 -148 -68 -273 0 -273 149 0 108 48 158 156 164 l68 4
0 -48 c0 -89 4 -94 71 -94 l60 0 -3 112 -3 111 -39 14 c-50 17 -190 25 -236
13z"/>
<path d="M1755 3174 c-16 -8 -40 -25 -52 -36 l-23 -21 0 31 0 32 -85 0 -85 0
0 -45 c0 -41 2 -45 25 -45 l25 0 0 -120 0 -120 -25 0 c-23 0 -25 -3 -25 -50
l0 -51 113 3 112 3 0 45 c0 42 -2 45 -29 48 l-29 4 7 59 c10 101 46 146 126
156 l40 6 0 58 0 59 -32 0 c-18 0 -46 -7 -63 -16z"/>
<path d="M4283 3171 c-79 -36 -121 -104 -122 -197 -2 -138 82 -227 214 -227
91 0 159 41 199 120 21 42 21 154 0 199 -50 105 -183 153 -291 105z m152 -116
c25 -24 30 -47 26 -115 -4 -59 -66 -96 -126 -74 -39 15 -59 118 -33 167 28 53
92 64 133 22z"/>
<path d="M4818 3172 c-30 -16 -38 -17 -38 -6 0 11 -20 14 -90 14 l-90 0 0 -45
c0 -41 2 -45 25 -45 l25 0 -2 -192 c-3 -192 -3 -193 -25 -196 -20 -3 -23 -9
-23 -48 l0 -44 116 0 115 0 -3 48 c-3 42 -5 47 -25 44 -21 -3 -23 1 -23 37 0
42 7 50 27 30 6 -6 29 -15 52 -20 89 -20 176 32 207 123 20 61 15 166 -10 220
-39 82 -158 122 -238 80z m80 -103 c55 -19 75 -123 35 -177 -28 -37 -95 -43
-129 -11 -20 19 -24 32 -24 80 0 74 6 88 44 105 38 16 36 16 74 3z"/>
<path d="M5255 3178 c-50 -18 -83 -47 -111 -94 -24 -40 -26 -52 -23 -127 4
-72 8 -89 32 -125 60 -86 191 -112 301 -58 60 29 61 32 45 89 -12 43 -17 44
-61 17 -22 -13 -51 -20 -86 -20 -45 0 -57 4 -80 28 l-27 27 143 3 142 3 0 62
c-1 126 -66 199 -184 204 -33 1 -74 -3 -91 -9z m120 -100 c22 -10 55 -53 55
-73 0 -3 -40 -5 -90 -5 -80 0 -90 2 -90 18 0 19 34 55 60 65 24 9 37 8 65 -5z"/>
<path d="M2608 2453 c-20 -5 -23 -19 -38 -183 -6 -63 -15 -160 -21 -215 -11
-109 -70 -421 -94 -499 -8 -28 -12 -53 -8 -56 46 -40 178 -119 185 -112 16 16
76 247 99 382 35 204 78 566 79 673 0 15 -11 17 -92 16 -51 -1 -101 -3 -110
-6z"/>
</g>
</svg>
